<?xml version="1.0" standalone="no"?>
<svg version="1.0" xmlns="http://www.w3.org/2000/svg"
 width="981.000000pt" height="707.000000pt" viewBox="0 0 981.000000 707.000000"
 preserveAspectRatio="xMidYMid meet">

<g transform="translate(0.000000,707.000000) scale(0.100000,-0.100000)"
fill="#000000" stroke="none">
<path d="M4430 7051 c-43 -13 -84 -38 -111 -68 -44 -47 -52 -70 -45 -135 l7
-58 -30 -6 c-35 -7 -55 -27 -68 -69 -7 -22 -15 -29 -29 -27 -11 1 -40 -11 -65
-28 -24 -16 -51 -30 -60 -30 -8 0 -29 20 -47 45 -44 63 -72 61 -146 -5 -47
-43 -68 -55 -143 -76 -84 -25 -163 -60 -163 -74 0 -4 -20 -21 -45 -39 -55 -39
-98 -109 -98 -159 0 -20 10 -61 23 -89 23 -54 22 -96 -3 -106 -10 -4 -13 2 -9
19 4 22 1 24 -30 24 -20 0 -46 -9 -61 -21 -21 -16 -31 -18 -46 -10 -13 7 -28
8 -44 2 -14 -6 -54 -13 -89 -16 -124 -12 -138 -22 -138 -93 0 -60 44 -155 95
-202 36 -34 65 -79 65 -100 0 -5 -17 -10 -37 -10 -31 0 -46 9 -104 65 -70 68
-93 76 -144 53 -20 -9 -25 -18 -25 -46 0 -31 -2 -34 -22 -27 -13 4 -34 8 -48
9 -21 1 -25 -4 -28 -32 -4 -41 10 -59 51 -67 46 -10 77 -32 77 -55 0 -21 -10
-26 -25 -11 -6 5 -33 16 -62 25 -92 30 -122 78 -88 142 8 17 15 56 15 91 0 55
-2 62 -22 69 -31 9 -48 -19 -48 -80 1 -49 -1 -53 -56 -102 l-57 -51 28 -82
c25 -76 27 -91 20 -177 -8 -107 4 -160 39 -174 13 -5 50 -6 82 -3 57 5 61 4
91 -27 17 -18 37 -46 44 -63 11 -26 10 -35 -10 -69 -24 -42 -21 -55 15 -68 29
-11 32 -30 4 -30 -34 0 -50 39 -48 114 2 64 1 70 -26 93 -39 33 -80 25 -125
-23 -34 -37 -37 -59 -16 -130 5 -14 -8 -42 -44 -95 -82 -122 -91 -129 -164
-129 -43 0 -70 5 -83 16 -18 14 -16 15 28 10 62 -7 76 -1 84 39 3 19 22 52 41
75 25 29 39 58 48 102 11 55 10 71 -10 159 -20 84 -22 116 -17 227 4 110 2
138 -13 181 l-19 50 25 52 c29 63 34 169 8 194 -18 18 -26 19 -132 9 -87 -8
-107 -23 -107 -79 -1 -45 -40 -132 -93 -204 -51 -69 -58 -98 -27 -126 27 -25
25 -69 -6 -122 -29 -50 -22 -69 24 -75 21 -2 28 -10 35 -41 5 -21 22 -50 37
-65 27 -27 27 -29 13 -65 -11 -27 -19 -35 -27 -27 -10 7 -15 -8 -23 -61 -9
-53 -21 -85 -51 -132 -22 -34 -60 -103 -86 -153 -84 -165 -201 -281 -353 -350
-43 -20 -86 -43 -95 -51 -22 -20 -23 -62 -3 -110 20 -47 19 -98 -2 -129 -9
-14 -22 -67 -29 -117 -7 -51 -29 -150 -49 -222 -43 -157 -80 -219 -173 -283
-58 -41 -62 -46 -62 -83 0 -48 23 -107 45 -115 27 -11 45 -60 45 -122 0 -120
-56 -189 -180 -222 -67 -18 -159 -70 -186 -105 -28 -37 -30 -69 -8 -125 23
-56 56 -71 172 -75 63 -3 98 -9 104 -17 11 -18 10 -53 -4 -83 -9 -19 -19 -25
-44 -25 -48 0 -86 -20 -81 -42 4 -12 0 -18 -13 -18 -26 0 -43 -23 -28 -38 7
-7 17 -12 23 -12 5 -1 19 -20 30 -43 12 -24 36 -52 57 -66 36 -23 38 -27 38
-80 l0 -56 18 35 c22 45 49 51 62 13 6 -15 18 -33 26 -40 27 -20 6 -35 -41
-27 -39 5 -45 3 -60 -20 -22 -33 -13 -56 20 -56 22 0 25 -3 19 -24 -3 -13 -1
-27 4 -30 16 -9 25 -127 13 -158 -21 -55 -155 -64 -198 -13 -13 14 -40 32 -60
39 -29 10 -39 19 -41 39 l-3 26 -63 -23 c-34 -13 -82 -34 -105 -45 -29 -15
-52 -20 -71 -16 -16 3 -31 2 -35 -4 -4 -8 -11 -6 -21 4 -11 10 -29 13 -62 10
-94 -10 -168 -22 -192 -32 -14 -6 -71 -11 -125 -10 -94 1 -100 -1 -101 -20 -2
-29 -12 -43 -35 -43 -16 0 -19 -7 -19 -42 0 -58 -15 -110 -57 -196 -23 -48
-41 -72 -53 -72 -9 0 -20 -3 -24 -7 -4 -5 -18 -8 -29 -8 -50 0 -19 -165 42
-219 20 -19 21 -18 41 28 11 26 20 53 20 59 0 8 3 8 11 0 7 -7 7 -23 -1 -52
l-11 -42 54 -59 c37 -39 63 -80 78 -121 18 -47 33 -68 61 -86 49 -33 64 -58
77 -129 10 -50 18 -66 60 -109 27 -27 57 -66 66 -85 10 -19 38 -59 62 -88 35
-44 43 -61 43 -95 0 -23 4 -58 9 -77 5 -19 12 -47 15 -62 6 -28 7 -28 84 -28
54 0 100 8 155 25 43 14 85 25 94 25 16 0 252 125 305 162 14 10 41 18 60 18
37 0 58 15 58 41 0 19 20 29 55 29 14 0 26 7 30 19 3 10 23 25 45 34 33 12 40
20 40 42 0 17 12 37 38 60 20 19 40 35 43 35 3 0 14 15 24 33 16 31 16 36 2
64 -16 30 -69 63 -102 63 -31 0 -55 21 -81 72 -20 38 -25 60 -20 87 l5 36 -61
-69 c-81 -90 -146 -115 -221 -87 -24 9 -25 13 -20 70 5 56 4 61 -14 61 -32 0
-57 -35 -50 -70 9 -44 -1 -37 -24 16 -11 27 -17 55 -13 67 5 16 -3 29 -33 56
-50 45 -88 137 -68 164 14 19 75 23 104 7 10 -5 21 -24 25 -41 8 -41 67 -96
148 -139 66 -36 115 -42 186 -23 43 11 43 11 56 -22 8 -18 26 -41 40 -50 36
-24 200 -36 396 -29 91 3 170 2 175 -3 6 -4 35 -36 64 -71 39 -45 65 -65 93
-74 40 -12 40 -12 18 -28 -19 -14 -20 -20 -11 -37 19 -36 71 -73 102 -73 47 0
89 26 89 55 0 14 5 25 10 25 6 0 10 -10 10 -23 0 -12 7 -33 16 -46 12 -17 13
-26 5 -34 -33 -33 12 -237 78 -345 24 -40 41 -81 41 -99 0 -18 16 -55 41 -94
23 -35 50 -86 59 -114 28 -80 31 -84 52 -91 14 -4 28 2 46 19 15 14 36 27 47
29 13 2 21 12 23 30 2 15 14 34 28 42 19 13 24 25 24 60 0 24 6 61 14 82 9 27
11 56 6 94 -9 65 -4 73 83 132 31 21 57 43 57 48 0 5 24 25 53 43 28 19 63 46
77 61 13 15 43 35 66 46 54 23 84 53 78 77 -4 14 5 26 33 44 33 22 41 24 62
13 17 -9 30 -10 43 -3 11 6 32 11 49 11 34 1 54 21 45 44 -4 12 0 15 16 12 16
-2 36 -25 65 -73 23 -38 55 -82 72 -97 16 -14 27 -28 25 -31 -3 -3 6 -16 20
-30 30 -30 43 -89 27 -123 -6 -14 -11 -34 -11 -45 0 -16 5 -19 20 -14 13 4 20
2 20 -7 0 -39 112 19 130 66 7 19 9 18 29 -14 11 -19 21 -52 21 -72 0 -21 14
-72 30 -113 28 -70 30 -84 27 -174 -3 -53 -9 -107 -16 -119 -10 -19 -8 -23 16
-36 16 -8 50 -17 76 -21 l48 -7 -16 38 c-9 22 -21 41 -27 43 -6 2 -19 12 -29
22 -18 18 -18 20 11 85 17 36 30 78 30 93 0 15 6 36 14 46 12 16 16 17 30 6 9
-7 16 -20 16 -27 0 -9 11 -14 29 -14 21 0 37 -10 60 -37 50 -62 95 -103 112
-103 27 0 42 -27 36 -63 -10 -61 5 -65 68 -18 32 24 60 52 62 61 3 10 16 21
29 24 18 5 93 49 123 73 3 2 4 36 3 75 -3 102 -33 163 -132 263 -44 46 -82 94
-86 110 -6 26 -1 34 54 87 80 75 118 95 140 75 10 -8 23 -12 30 -10 7 3 12 -5
12 -20 0 -13 7 -30 15 -37 19 -16 19 -30 -1 -30 -22 0 -84 -52 -84 -71 0 -9
11 -24 23 -32 21 -14 27 -14 63 2 45 21 74 72 57 100 -6 9 -14 31 -18 49 -6
29 -4 33 22 43 15 6 44 11 63 11 45 0 103 26 96 44 -3 8 0 14 7 14 7 0 28 26
46 57 71 119 232 263 367 331 64 32 74 45 74 93 0 23 -4 29 -22 29 -22 1 -21
2 5 16 15 8 27 22 28 32 0 9 3 30 5 45 4 22 -4 38 -33 72 -21 24 -54 72 -73
108 l-34 65 28 41 c16 22 33 38 38 35 6 -4 23 8 39 25 25 28 33 31 65 25 33
-6 36 -5 32 17 -2 20 -13 27 -68 41 l-65 18 -37 -25 c-21 -14 -40 -25 -42 -25
-3 0 -6 12 -8 27 -2 21 -14 34 -45 51 -33 18 -43 30 -43 48 0 21 4 24 29 22
21 -2 47 12 105 57 117 91 115 90 122 72 3 -8 -4 -34 -16 -57 -15 -30 -18 -45
-10 -50 8 -5 6 -11 -5 -20 -33 -27 -12 -29 53 -4 99 38 114 42 150 36 43 -6
49 -23 27 -72 -15 -32 -16 -42 -5 -55 11 -13 23 -5 90 59 42 40 97 85 122 100
32 19 58 48 98 111 30 47 62 88 72 90 9 3 19 12 22 20 6 17 42 20 51 4 4 -6
13 -8 20 -5 7 2 17 0 22 -5 6 -6 29 22 63 73 61 96 191 227 273 278 37 23 60
44 64 60 3 14 18 41 33 62 23 32 28 51 34 134 4 65 14 113 27 143 12 25 23 73
26 106 5 59 4 62 -35 112 -30 37 -50 53 -74 58 -18 4 -41 9 -51 11 -13 4 -21
-4 -32 -30 -17 -41 -29 -45 -45 -16 -8 15 -17 19 -31 15 -16 -5 -19 -1 -19 23
0 39 -19 54 -61 45 -33 -6 -30 -3 65 103 54 60 131 141 170 180 39 39 94 96
122 126 83 89 158 112 243 73 39 -17 44 -18 52 -3 7 13 20 15 62 11 47 -5 56
-2 86 22 32 28 33 28 102 16 77 -14 91 -25 60 -47 -23 -17 -28 -40 -9 -46 7
-3 31 1 53 7 22 7 71 16 109 20 86 9 120 23 105 42 -6 7 -24 13 -40 13 -44 0
-37 30 24 100 28 34 66 83 84 109 28 43 37 49 88 60 44 10 59 10 71 0 10 -8
21 -9 37 -2 21 10 22 8 22 -43 0 -94 28 -95 125 -6 37 34 67 71 74 92 14 42
64 75 98 64 22 -7 22 -8 -9 -20 -28 -12 -35 -23 -53 -84 -16 -53 -35 -87 -79
-142 -73 -91 -217 -232 -293 -286 -40 -29 -58 -50 -63 -72 -4 -16 -11 -32 -16
-36 -33 -20 -64 -167 -60 -291 1 -55 41 -224 63 -270 8 -17 23 -29 37 -31 32
-5 79 42 87 87 4 22 24 53 52 83 36 38 43 53 39 74 -7 38 31 74 77 74 66 0 83
22 51 67 -9 13 -13 32 -10 45 7 26 47 81 43 58 -2 -8 6 -16 19 -18 17 -2 26 4
35 22 11 26 6 46 -24 87 -9 13 -7 22 10 47 25 34 18 45 -35 57 -18 3 -33 10
-33 13 0 4 16 33 36 65 20 32 39 76 41 98 5 32 12 43 31 50 25 10 32 6 46 -26
3 -5 14 2 26 18 12 15 31 32 42 38 18 10 20 9 16 -9 -12 -46 8 -46 79 2 82 55
113 58 145 16 12 -16 28 -30 37 -30 8 0 54 40 104 90 74 75 104 97 184 137 53
27 109 61 125 76 l28 28 26 -20 c34 -27 88 -27 114 -1 29 29 25 55 -15 99 -29
31 -34 45 -29 65 8 34 -20 80 -44 72 -9 -3 -4 4 13 16 118 90 144 124 145 194
0 23 6 47 13 53 17 14 27 5 27 -24 0 -35 24 -48 73 -41 55 8 74 1 82 -32 9
-39 33 -72 51 -72 9 0 29 -11 46 -25 51 -43 108 -32 108 21 0 8 10 28 22 45
22 29 22 31 5 61 -15 27 -16 30 -1 24 51 -20 64 -18 96 13 18 17 41 36 51 43
16 12 12 19 -52 81 -60 57 -75 67 -106 67 -19 0 -47 7 -61 16 -35 24 -48 7
-45 -61 1 -37 -2 -54 -9 -50 -5 3 -10 25 -10 49 0 28 -11 64 -31 104 -29 58
-38 67 -192 175 -89 63 -203 135 -254 161 -91 46 -92 47 -175 43 -64 -3 -85
-1 -93 10 -7 10 -38 16 -93 20 l-81 6 -11 -28 c-9 -22 -6 -35 17 -77 30 -55
26 -71 -19 -97 -25 -14 -27 -13 -86 50 -33 36 -72 71 -86 79 -24 12 -29 11
-56 -8 -38 -29 -98 -29 -134 -1 -23 18 -34 20 -92 14 -56 -6 -68 -11 -87 -36
-22 -31 -37 -24 -37 18 0 16 -8 23 -30 28 -27 6 -30 11 -30 43 0 45 -29 109
-61 139 -62 57 -192 71 -297 32 -104 -39 -106 -38 -168 25 -30 31 -71 63 -90
71 -43 18 -52 39 -29 77 25 43 5 59 -82 65 -69 5 -70 5 -99 -29 -16 -20 -40
-41 -54 -47 -24 -11 -24 -11 3 9 36 28 34 49 -4 57 -21 4 -27 9 -20 16 6 6 11
19 11 29 0 19 -85 48 -203 69 -64 11 -70 10 -91 -10 -12 -11 -37 -26 -56 -32
-45 -15 -70 -37 -70 -62 0 -15 5 -18 25 -15 24 5 25 4 25 -54 0 -53 -2 -59
-17 -53 -60 25 -83 15 -83 -37 0 -37 -18 -36 -74 7 -55 42 -69 43 -130 9 -53
-30 -79 -26 -100 15 -8 15 -22 34 -31 41 -15 12 -19 12 -30 -3 -7 -10 -15 -36
-19 -58 -10 -61 -32 -99 -59 -99 -29 0 -59 32 -135 146 -50 75 -68 94 -101
108 -23 9 -41 20 -41 25 0 6 27 30 59 56 104 79 112 97 65 140 -23 21 -37 25
-93 25 -59 0 -71 3 -101 30 -24 20 -46 29 -70 30 -58 0 -73 -29 -48 -96 11
-30 9 -35 -14 -59 -22 -22 -30 -24 -52 -15 -15 5 -65 10 -111 10 -106 0 -132
11 -140 59 -9 51 -17 61 -61 71 -55 13 -198 12 -211 -1 -8 -8 -13 -6 -17 9 -8
24 -36 32 -82 25 -31 -5 -40 -1 -74 32 -33 32 -41 35 -59 26 -24 -13 -26 -29
-9 -67 11 -23 10 -28 -10 -45 -12 -9 -65 -34 -117 -54 -52 -20 -99 -43 -106
-51 -20 -25 -30 -15 -14 15 8 16 47 58 87 93 40 35 125 115 188 178 64 63 133
128 154 144 38 28 38 30 33 83 -4 36 -1 65 9 89 15 37 12 51 -18 72 -10 7 -29
35 -43 62 -27 52 -62 75 -166 105 -64 18 -90 12 -128 -29 -25 -27 -46 -32 -70
-17 -12 8 -10 15 8 46 12 21 20 43 17 50 -2 7 -39 18 -82 24 -43 6 -79 13 -81
14 -1 2 8 19 22 37 58 79 8 132 -95 101z"/>
</g>
</svg>
