<?xml version="1.0" encoding="utf-8"?>
<!-- Svg Vector Icons : http://www.onlinewebfonts.com/icon -->
<!DOCTYPE svg PUBLIC "-//W3C//DTD SVG 1.1//EN" "http://www.w3.org/Graphics/SVG/1.1/DTD/svg11.dtd">
<svg version="1.1" xmlns="http://www.w3.org/2000/svg" xmlns:xlink="http://www.w3.org/1999/xlink" x="0px" y="0px" viewBox="0 0 1000 1000" enable-background="new 0 0 1000 1000" xml:space="preserve">
<metadata> Svg Vector Icons : http://www.onlinewebfonts.com/icon </metadata>
<g><g transform="translate(0.000000,511.000000) scale(0.100000,-0.100000)"><path d="M8352.6,4031.9c-59.6-17.3-111.6-53.9-100.1-73.1c5.8-7.7,1.9-25-7.7-40.4c-13.5-21.2-27-23.1-52-7.7c-40.4,23.1-107.8,13.5-92.4-13.5c7.7-9.6,36.6-17.3,69.3-17.3c30.8,0,55.8-7.7,55.8-19.2c0-9.6-25-13.5-61.6-5.8c-46.2,9.6-55.8,5.8-44.3-13.5c9.6-17.3,3.8-19.2-27-9.6c-21.2,5.8-40.4,3.9-40.4-5.8c0-28.9,50-42.3,75.1-17.3c28.9,28.9,40.4,11.6,28.9-40.4l-11.6-40.4l-75,38.5c-77,38.5-127,34.6-100.1-7.7c7.7-13.5,15.4-34.6,19.2-50c1.9-19.2-1.9-21.2-19.2-3.8c-11.6,11.6-32.7,21.2-48.1,21.2s-38.5,11.6-50,26.9c-26.9,32.7-148.2,3.8-138.6-32.7c1.9-11.6,1.9-17.3-1.9-7.7c-21.2,34.6-59.7,7.7-71.2-46.2c-7.7-44.3-19.2-55.8-44.3-50c-34.6,7.7-157.8-53.9-182.8-90.4c-26.9-40.4-15.4-53.9,34.6-42.3c44.3,11.6,46.2,9.6,23.1-17.3c-69.3-86.6-96.2-105.8-142.4-105.8c-27,0-65.4-9.6-84.7-19.2c-21.2-11.5-63.5-23.1-98.1-26.9c-90.5-9.6-100.1-48.1-30.8-113.6c46.2-44.3,71.2-52,115.5-44.3c34.6,7.7,52,3.8,48.1-9.6c-3.8-11.5-50-25-102-28.9c-105.9-7.7-150.1-34.6-88.5-55.8c44.3-13.5,53.9-40.4,17.3-52c-50-17.3,9.6-55.8,73.1-48.1c36.6,5.8,65.4,1.9,65.4-9.6c0-9.6,7.7-13.5,19.2-5.8c65.4,40.4,288.7-21.2,288.7-80.8c0-11.5,28.9-55.8,65.4-94.3c36.5-40.4,61.6-80.8,57.7-88.5c-5.8-9.6,0-28.9,11.5-44.3c13.5-15.4,17.3-28.9,9.6-28.9c-7.7,0-3.8-13.5,9.6-28.9c13.5-17.3,19.3-34.6,13.5-40.4c-5.8-7.7,0-25,15.4-40.4c34.6-32.7,36.6-63.5,7.7-63.5c-9.6,0-15.4-7.7-7.7-17.3c5.8-11.5-5.8-26.9-23.1-38.5c-25-15.4-26.9-19.2-7.7-21.2c21.2,0,17.3-7.7-9.6-26.9c-34.6-26.9-34.6-28.9,17.3-40.4c40.4-11.6,59.7-3.8,86.6,30.8c36.6,42.3,36.6,42.3,75.1,5.8c21.2-19.2,57.7-52,80.8-71.2c25-21.2,38.5-48.1,32.7-63.5c-5.8-17.3-1.9-23.1,7.7-17.3c11.5,5.8,19.2,1.9,19.2-7.7c0-28.9-38.5-25-96.2,7.7c-67.3,38.5-175.1,38.5-161.7,0c7.7-15.4,32.7-28.9,55.8-28.9c25,0,52-7.7,57.7-19.2c5.8-9.6,42.3-19.2,80.8-19.2c63.5,0,67.4-3.9,55.8-48.1c-7.7-32.7-3.8-48.1,11.6-48.1c15.4,0,11.5-9.6-7.7-21.2c-17.3-9.6-28.9-30.8-23.1-46.2c7.7-19.2-9.6-30.8-57.7-40.4c-38.5-5.8-73.1-17.3-77-25c-11.5-17.3,69.3-15.4,96.2,3.8c27,15.4,50-32.7,34.6-73.1c-7.7-15.4-34.6-28.9-65.4-28.9c-30.8,0-71.2-5.8-90.4-11.6c-25-9.6-28.9-7.7-15.4,7.7c11.5,13.5,50,27,82.8,30.8c34.6,3.9,69.3,13.5,77,21.2c7.7,7.7-25,9.6-73.1,1.9c-90.5-13.5-115.5-34.6-105.9-86.6c3.9-17.3,7.7-36.6,7.7-44.3c1.9-7.7,25-15.4,55.8-19.2l52-5.8l-63.5-34.6c-34.6-19.2-57.7-42.3-52-52c5.8-9.6,55.8,11.5,109.7,48.1c52,36.6,115.5,67.4,138.6,65.4c32.7,0,30.8-5.8-17.3-23.1c-65.4-25-221.3-123.2-221.3-138.6c0-5.8,23.1-19.2,50-28.9c27-11.6,44.3-26.9,38.5-36.6c-5.8-9.6,2-21.2,17.3-28.9c21.2-7.7,25-26.9,17.3-73.1l-11.6-63.5l40.4,48.1c21.2,26.9,40.4,53.9,40.4,63.5c0,26.9,36.6,13.5,90.4-36.6c48.1-44.3,50-46.2,7.7-26.9c-36.6,19.2-50,17.3-77-9.6c-28.9-30.8-26.9-32.7,17.3-19.2c36.6,9.6,40.4,7.7,19.2-7.7c-15.4-11.6-42.3-15.4-59.6-11.6c-25,7.7-28.9,0-23.1-36.6c5.8-28.9,19.3-44.3,34.6-38.5c25,9.6,55.8-23.1,57.7-59.7c0-9.6,17.3-15.4,38.5-13.5c30.8,5.8,34.6,1.9,15.4-17.3c-40.4-40.4-28.9-75.1,23.1-75.1c34.6,0,44.3-7.7,36.6-28.9c-9.6-21.2-3.8-25,19.2-17.3s28.9,3.8,21.2-17.3c-7.7-19.2,3.8-32.7,36.6-40.4c25-5.8,59.6-25,75-40.4c32.7-30.8,142.4-9.6,173.2,32.7c13.5,19.2,19.3,19.2,27,0c3.9-11.6,17.3-19.2,25-13.5c9.6,5.8,28.9-7.7,44.3-28.9c13.5-21.2,32.7-32.7,40.4-25c7.7,7.7,7.7,0,1.9-17.3c-13.5-32.7,40.4-63.5,57.8-34.6c7.7,11.6,40.4,21.2,73.1,21.2c52,3.8,53.9,3.8,13.5,11.6l-46.2,9.6l46.2,26.9c27,13.5,36.6,25,21.2,26.9c-21.2,0-21.2,5.8-1.9,28.9c17.3,19.2,17.3,28.9,1.9,28.9c-11.5,0-21.2,9.6-21.2,19.2c0,11.6,11.5,19.2,27,19.2c46.2,0,53.9,82.8,11.5,119.3c-34.6,28.9-36.6,34.6-9.6,59.7c15.4,17.3,28.9,34.6,28.9,40.4c0,5.8,13.5,26.9,28.9,44.3c15.4,19.2,28.9,42.3,27,52c0,9.6,9.6,25,25,32.7c19.2,13.5,15.4,21.2-17.3,28.9c-50,13.5-59.7,46.2-15.4,46.2c15.4,0,28.9,13.5,28.9,28.9c0,17.3-13.5,34.6-28.9,40.4c-42.4,17.3-34.6,50,7.7,36.6c42.3-13.5,77,25,40.4,48.1c-28.9,19.2,5.8,42.3,65.4,46.2c21.2,1.9,40.4,15.4,42.3,30.8c1.9,44.3,28.9,96.2,48.1,96.2c9.6,0,13.5-23.1,5.8-52c-5.8-30.8-3.9-44.3,5.8-34.6c7.7,11.6,42.3,34.6,73.1,52c32.7,17.3,57.8,44.3,57.8,57.7c1.9,13.5,13.5,23.1,28.9,19.2c40.4-9.6,77,52,77,128.9c0,36.6,13.5,82.8,30.8,102c25,25,27,40.4,9.6,59.7c-17.3,23.1-13.5,25,27,17.3c53.9-9.6,155.9,11.5,136.6,28.9c-5.8,5.8,21.2,28.9,61.6,48.1c113.6,59.7,173.2,128.9,186.7,209.8c7.7,42.3,21.2,75.1,30.8,75.1c7.7,0,25,17.3,36.6,40.4c19.2,34.6,17.3,36.6-13.5,21.2c-19.3-11.6-65.4-21.2-102-25c-36.6-3.8-88.5-25-115.5-48.1s-69.3-48.1-96.2-55.8l-48.1-13.5l44.3,32.7c23.1,17.3,36.6,40.4,30.8,52c-9.6,15.4-1.9,17.3,23.1,7.7c19.2-7.7,28.9-7.7,21.2,0s-3.8,25,9.6,40.4c32.7,40.4,1.9,53.9-53.9,25c-30.8-17.3-46.2-38.5-40.4-59.7c5.8-23.1-5.8-36.6-36.6-42.3c-38.5-5.8-42.3-3.9-25,19.2c13.5,13.5,17.3,30.8,11.5,38.5c-7.7,5.8,15.4,25,48.1,42.3c82.8,42.3,63.5,65.4-57.7,71.2c-169.4,7.7-134.7,23.1,42.3,19.2c123.2-1.9,171.3-11.6,200.1-36.6c46.2-42.3,129-44.3,111.6-3.9c-7.7,25-3.8,26.9,27,9.6c21.2-11.6,38.5-15.4,38.5-7.7c0,17.3-82.8,113.5-102,117.4c-7.7,1.9-63.5,13.5-123.2,25c-80.8,17.3-111.6,17.3-117.4,1.9c-3.8-11.5-15.4-21.2-27-21.2c-11.5,0-15.4,13.5-9.6,28.9c15.4,36.6-21.2,59.7-50,30.8c-32.7-32.7-59.7-25-32.7,7.7c19.2,25,17.3,28.9-15.4,28.9c-23.1,0-46.2-7.7-52-19.2c-5.8-9.6-19.3-19.2-28.9-19.2c-9.6,0,15.4,34.6,55.8,75.1c57.7,59.7,84.7,73.1,123.2,65.4c32.7-5.8,67.4,3.9,102,30.8l50.1,40.4l-50.1,19.2c-28.9,9.6-46.2,26.9-40.4,38.5c5.8,9.6-1.9,19.2-19.2,19.2c-23.1,0-28.9-9.6-21.2-30.8c7.7-19.2,1.9-26.9-11.6-23.1c-48.1,17.3-36.5,53.9,21.2,65.4c77,15.4,92.4,38.5,30.8,50c-25,5.8-42.3,1.9-36.6-5.8c5.8-9.6,0-17.3-9.6-17.3c-11.5,0-21.2,9.6-21.2,21.2s-13.5,15.4-30.8,9.6c-15.4-5.8-23.1-3.8-17.3,5.8c5.8,9.6-9.6,23.1-32.7,26.9c-28.9,5.8-17.3,9.6,28.9,11.6c38.5,0,71.2,9.6,71.2,19.2c0,25-59.7,46.2-115.5,44.3c-27-1.9-36.6,1.9-23.1,7.7c42.3,19.2,25,46.2-19.3,28.9c-26.9-9.6-63.5-7.7-92.4,3.8c-38.5,15.4-42.3,21.2-13.5,27c17.3,5.8,32.7,21.2,32.7,36.6c0,15.4,17.3,26.9,36.6,26.9c50,0,65.4,28.9,32.7,55.8c-19.2,15.4-30.8,17.3-40.4,1.9c-15.4-25-105.9-25-105.9,0c0,11.6,15.4,19.2,34.6,19.2c27,0,28.9,3.8,3.8,19.2c-19.2,11.5-38.5,7.7-61.6-11.6c-28.9-26.9-34.6-25-65.4,34.6c-19.2,34.6-32.7,77-30.8,94.3c3.8,17.3-7.7,42.3-25,55.8c-17.3,15.4-25,40.4-17.3,69.3c9.6,38.5,5.8,44.3-19.3,34.6c-19.2-7.7-28.9-25-23.1-38.5c5.8-15.4,1.9-26.9-5.8-26.9c-36.5,0-36.5,57.7,0,77c21.2,11.6,32.7,28.9,27,40.4c-7.7,9.6-27,9.6-50-3.8c-23.1-11.6-44.3-17.3-48.1-11.6c-3.8,3.8,13.5,19.2,38.5,32.7c52,26.9,80.8,77,48.1,77c-11.5,0-17.3,17.3-11.5,36.6c5.8,28.9-3.9,38.5-44.3,44.3c-71.2,11.5-96.2,0-96.2-42.3c0-19.2-13.5-38.5-28.9-46.2c-17.3-5.8-28.9-36.6-30.8-73.1l-1.9-63.5l-23.1,67.4c-25,65.4-88.5,105.8-88.5,53.9c0-15.4-13.5-44.3-28.9-65.4c-28.9-34.6-28.9-34.6-17.3,15.4c11.5,52,9.6,52-46.2,32.7c-32.7-11.6-69.3-32.7-82.8-48.1c-32.7-40.4-59.7-32.7-36.6,11.6c11.5,19.2,55.8,48.1,98.1,59.7c73.1,23.1,130.9,80.8,100.1,100.1c-59.6,36.6-192.5,13.5-281-48.1c-30.8-21.2-57.7-34.6-63.5-28.9c-11.6,11.5,113.5,90.5,142.4,90.5c11.6,0,25,7.7,30.8,17.3C8535.5,4053.1,8429.6,4051.2,8352.6,4031.9z M7961.9,1730.1c-25-3.8-67.4-3.8-96.2,0c-30.8,3.9-9.6,7.7,42.3,7.7C7961.9,1737.8,7985,1734,7961.9,1730.1z"/><path d="M6474.2,3727.9c0-11.5,9.6-25,19.2-30.8c11.5-5.8,19.3-25,19.3-42.3c0-26.9-7.7-25-42.4,7.7c-63.5,59.6-246.3,67.4-315.6,15.4c-34.7-28.9-34.7-30.8,21.2-77c30.8-25,52-52,46.2-57.7c-5.8-3.9-53.9,1.9-105.9,17.3c-155.9,46.2-286.8,55.8-317.6,26.9c-15.4-15.4-84.7-26.9-169.3-30.8c-159.8-5.8-175.2-11.6-175.2-63.5c0-25,13.5-36.6,44.3-36.6c55.8,0,90.5-34.6,77-73.1c-7.7-15.4-3.8-25,5.8-19.2c119.3,57.7,175.1,75.1,227.1,69.3c52-5.8,59.7-11.5,53.9-55.8c-3.9-48.1,0-50,57.7-38.5c34.6,7.7,77,5.8,94.3-5.8c23.1-13.5,57.7-9.6,117.4,13.5c103.9,40.4,188.6,42.3,238.6,3.9c34.7-26.9,34.7-26.9-19.2-28.9c-77,0-207.9-40.4-248.3-75.1c-32.7-26.9-30.8-30.8,19.2-57.7c44.3-25,48.1-30.8,19.2-36.6c-19.2-3.8-67.4,15.4-107.8,42.3c-52,36.6-96.2,50-161.7,50c-86.6,0-90.5-1.9-71.2-38.5c11.6-21.2,32.7-38.5,46.2-38.5c13.5,0,40.4-17.3,59.7-38.5c19.2-21.2,73.1-57.7,123.2-80.8c103.9-52,71.2-67.4-75.1-36.6c-103.9,23.1-179,5.8-198.2-44.3c-9.6-21.2,3.8-32.7,50-40.4c38.5-7.7,71.2-28.9,80.8-53.9c11.6-25,42.3-46.2,75-52c50-7.7,52-13.5,25-34.6c-36.6-30.8-96.2-15.4-165.5,36.6c-25,21.2-71.2,36.6-103.9,36.6c-53.9,0-55.8-1.9-28.9-42.3c27-40.4,25-44.3-44.3-77c-42.3-17.3-75-40.4-75-50c0-30.8,63.5-46.2,78.9-19.2c13.5,19.2,21.2,19.2,40.4,0c34.6-34.6,207.9-30.8,207.9,5.8c0,25,9.6,23.1,69.3-3.9c50-25,71.2-26.9,80.8-11.5c17.3,28.9,94.3,11.5,105.9-23.1c7.7-19.2,28.9-19.2,94.3-1.9c157.8,40.4,173.2,78.9,40.4,96.2c-150.1,21.2-198.2,32.7-198.2,50c0,28.9,52,34.6,134.7,17.3c92.4-21.2,136.6,0,121.2,59.7c-9.6,32.7-1.9,34.6,63.5,25c61.6-9.6,69.3-7.7,59.7,19.2c-7.7,19.2-1.9,32.7,11.5,32.7c30.8,0,90.5,69.3,90.5,103.9c0,30.8-40.4,50-107.8,50c-28.9,0-46.2,11.6-46.2,28.9c0,25,21.2,28.9,130.9,19.2c113.6-11.5,125.1-9.6,96.2,15.4c-55.8,46.2-40.4,55.8,69.3,42.3c134.7-17.3,184.8-1.9,184.8,59.7c0,26.9,11.5,46.2,28.9,46.2c15.4,0,73.1,26.9,129,59.7c55.8,32.7,123.2,67.4,148.2,77c61.6,25,34.6,46.2-52,46.2c-48.1,0-71.2,9.6-71.2,26.9c0,38.5,98.2,63.5,190.5,50c78.9-11.5,204,23.1,204,57.7c0,30.8-144.3,69.3-327.2,88.5c-90.5,9.6-192.5,21.2-225.2,28.9c-50,9.6-63.5,5.8-63.5-19.2c0-38.5-27-40.4-57.7-1.9c-13.5,15.4-44.3,28.9-69.3,28.9c-32.7,0-42.3-7.7-34.7-28.9c13.5-30.8-11.5-38.5-40.4-11.6C6628.2,3729.8,6474.2,3749,6474.2,3727.9z"/><path d="M5300.2,3419.9c0-9.6-26.9-21.2-61.6-28.9c-57.7-11.6-59.7-13.5-25-50c34.6-36.6,32.7-38.5-5.8-38.5c-46.2,0-71.2-28.9-42.3-48.1c28.9-19.2,3.9-48.1-42.3-48.1c-40.4,0-40.4,0,1.9-46.2c38.5-42.3,55.8-46.2,134.7-36.6c63.5,7.7,107.8,1.9,148.2-19.2l55.8-30.8l-109.7-1.9c-61.6,0-111.6-7.7-111.6-15.4c0-69.3,219.4-150.1,277.1-102c19.2,15.4,30.8,17.3,40.4,1.9c21.2-32.7,48.1-21.2,48.1,21.2c0,30.8,9.6,38.5,38.5,30.8c21.2-5.8,38.5-1.9,38.5,7.7c0,9.6,32.7,32.7,73.1,53.9c67.4,36.6,69.3,38.5,21.2,40.4c-52,0-75.1,30.8-75.1,96.2c0,17.3-13.5,44.3-28.9,57.7c-23.1,19.2-28.9,19.2-28.9-7.7c0-48.1-48.1-36.6-73.1,19.2c-17.3,34.6-32.7,46.2-57.7,38.5c-25-7.7-53.9,9.6-98.2,55.8C5361.8,3433.4,5300.2,3458.4,5300.2,3419.9z"/><path d="M9563.2,3244.8c-15.4-25,17.3-38.5,46.2-21.2c19.2,11.5,17.3,19.2-5.8,26.9C9588.2,3256.3,9569,3254.4,9563.2,3244.8z"/><path d="M4453.4,3092.8c0-9.6,25-21.2,55.8-26.9c32.7-7.7,67.4-30.8,78.9-53.9c21.2-38.5,19.2-40.4-38.5-26.9c-48.1,9.6-59.7,7.7-53.9-11.6c5.8-17.3,53.9-30.8,140.5-38.5c92.4-7.7,134.7-21.2,148.2-42.3c19.2-38.5,111.6-44.3,111.6-7.7c0,57.7-86.6,130.9-169.4,142.4c-52,7.7-88.5,23.1-102,46.2c-13.5,26.9-40.4,36.6-94.3,36.6C4488.1,3110.1,4453.4,3102.4,4453.4,3092.8z"/><path d="M4957.7,2983.1c9.6-53.9,96.2-103.9,155.9-90.4c75.1,15.4,63.5,53.9-25,90.4C4988.5,3023.5,4950,3021.5,4957.7,2983.1z"/><path d="M3928,2865.6c-7.7-5.8-3.9-23.1,7.7-38.5c32.7-38.5,140.5-30.8,180.9,13.5c34.6,38.5,32.7,38.5-71.2,38.5C3987.7,2879.1,3933.8,2873.4,3928,2865.6z"/><path d="M9540.1,2846.4c0-15.4,25-25,65.4-25c77,0,69.3,30.8-9.6,42.4C9559.3,2869.5,9540.1,2863.7,9540.1,2846.4z"/><path d="M3664.3,2800.2c-15.4-9.6-67.4-17.3-113.5-17.3c-63.5,0-100.1-13.5-155.9-57.7c-40.4-30.8-86.6-57.7-103.9-57.7s-30.8-13.5-30.8-30.8c0-19.2,13.5-26.9,46.2-23.1c25,1.9,59.7-5.8,77-21.2c38.5-30.8,75.1-5.8,121.3,82.8l30.8,57.7l34.6-42.3c30.8-38.5,40.4-40.4,73.1-19.2c23.1,13.5,40.4,38.5,40.4,53.9c0,17.3,9.6,40.4,21.2,52C3731.7,2804.1,3699,2823.3,3664.3,2800.2z"/><path d="M5098.2,2686.7c40.4-46.2,163.6-53.9,163.6-11.6c0,25-78.9,50-159.7,50C5065.4,2725.2,5063.5,2723.2,5098.2,2686.7z"/><path d="M4157,2680.9c-34.6-27-34.6-28.9,3.8-67.4c52-52,53.9-75.1,9.6-88.5c-61.6-17.3-142.4,3.8-188.6,46.2c-25,23.1-55.8,36.6-67.4,28.9c-11.6-7.7-38.5,1.9-57.7,19.2c-26.9,25-48.1,28.9-88.5,15.4c-69.3-23.1-77-52-23.1-78.9c40.4-19.2,38.5-21.2-27-21.2c-73.1-1.9-113.5-34.6-73.1-59.7c26.9-15.4,152-11.5,304.1,9.6c82.8,11.6,100.1,9.6,100.1-13.5c0-21.2-28.9-32.7-96.2-42.3c-96.2-13.5-123.2-36.6-65.4-57.7c57.7-21.2,125.1-11.5,215.5,34.6c73.1,36.6,111.6,42.4,200.2,34.6c105.8-7.7,111.6-5.8,130.9,44.3c13.5,38.5,13.5,59.7-1.9,78.9c-25,30.8-69.3,34.6-78.9,7.7c-13.5-40.4-88.5,3.9-103.9,63.5C4228.2,2704,4205.2,2715.5,4157,2680.9z"/><path d="M4817.2,2642.4c11.6-11.6,21.2-34.6,21.2-50c0-21.2-11.5-17.3-44.3,13.5c-52,50-100.1,55.8-82.8,13.5c5.8-17.3-1.9-34.6-17.3-40.4c-59.7-23.1-26.9-50,46.2-36.6c80.8,13.5,117.4-11.5,80.8-55.8c-17.3-19.2-15.4-28.9,1.9-36.6c38.5-13.5,150.1,7.7,138.6,28.9c-5.8,9.6-1.9,28.9,11.5,44.3c11.6,15.4,19.2,50,15.4,80.8c-5.8,50-11.5,53.9-98.1,55.8C4822.9,2661.6,4803.7,2655.9,4817.2,2642.4z"/><path d="M5319.5,2653.9c0-9.6,13.5-32.7,28.9-52c15.4-21.2,28.9-65.4,28.9-96.2c0-71.2,26.9-117.4,55.8-100.1c11.6,7.7,38.5,3.9,61.6-9.6c30.8-15.4,52-15.4,86.6,1.9c36.6,21.2,48.1,19.2,75-7.7c23.1-21.2,46.2-26.9,75-17.3c21.2,7.7,86.6,11.5,142.4,9.6c78.9-3.8,100.1,0,100.1,25c0,40.4,17.3,36.6,55.8-11.6c26.9-32.7,44.3-38.5,94.3-26.9c34.6,7.7,61.6,25,61.6,40.4c0,15.4,13.5,32.7,28.9,38.5c48.1,19.2,32.7,40.4-61.6,80.8c-77,32.7-109.7,36.6-198.2,21.2c-57.7-9.6-125.1-26.9-148.2-38.5c-32.7-17.3-50-17.3-69.3,0c-21.2,15.4-42.3,17.3-80.8,1.9c-44.3-17.3-59.7-13.5-90.5,19.2c-19.2,21.2-53.9,38.5-73.1,38.5c-52,0-48.1,32.7,1.9,48.1c32.7,11.6,36.6,17.3,15.4,30.8C5477.3,2671.3,5319.5,2673.2,5319.5,2653.9z"/><path d="M3165.9,2342.2c-59.7-9.6-63.5-13.5-34.6-38.5c42.3-32.7,40.4-52-5.8-111.6c-21.2-26.9-38.5-69.3-38.5-94.3c0-25-7.7-46.2-19.2-46.2c-9.6,0-19.2-7.7-19.2-19.2c0-9.6,13.5-19.2,30.8-19.2c15.4,0,55.8-25,88.5-57.7c30.8-30.8,63.5-57.7,71.2-57.7c44.3,0,175.1,82.8,175.1,111.6c0,42.3,109.7,130.9,234.8,184.8l96.2,42.3l-53.9,36.6c-30.8,19.2-92.4,36.6-142.4,38.5c-48.1,0-105.8,11.6-129,25C3375.6,2359.5,3277.5,2363.3,3165.9,2342.2z"/><path d="M5190.5,2274.8c7.7-19.2,1.9-30.8-15.4-30.8c-42.3,0-36.6-121.2,7.7-175.1c30.8-38.5,40.4-40.4,67.4-19.2c23.1,19.2,27,32.7,9.6,52c-17.3,23.1-7.7,26.9,55.8,26.9c65.4,0,84.7,9.6,129,69.3c28.9,36.6,48.1,71.2,46.2,73.1c-3.8,3.9-77,13.5-159.7,21.2C5196.3,2303.7,5180.9,2301.7,5190.5,2274.8z"/><path d="M4944.2,2263.3c-21.2-7.7-67.4-9.6-100.1-3.9c-69.3,9.6-78.9-5.8-34.6-53.9c26.9-28.9,25-36.6-7.7-65.4c-34.6-32.7-40.4-32.7-86.6-1.9c-42.3,28.9-50,28.9-50,5.8c0-32.7,59.7-92.4,92.4-92.4c11.5,0,52-25,86.6-57.7c71.2-61.6,155.9-84.7,109.7-28.9c-26.9,32.7,0,40.4,32.7,7.7c26.9-26.9,63.5-5.8,63.5,38.5c0,17.3,9.6,42.3,21.2,53.9c30.8,30.8,7.7,57.7-59.7,73.1c-69.3,15.4-71.2,25-9.6,78.9c42.3,36.6,44.3,42.3,13.5,50C4998.1,2272.9,4965.4,2271,4944.2,2263.3z"/><path d="M5671.7,2232.5c-77-38.5-128.9-113.6-113.6-167.4c5.8-23.1,0-52-9.6-65.4c-28.9-32.7-3.8-63.5,52-63.5c55.8,0,123.2-30.8,123.2-57.7c0-11.5-30.8-19.2-69.3-19.2c-61.6,0-67.4-3.9-44.2-30.8c17.3-23.1,46.2-28.9,98.1-21.2c51.9,7.7,73.1,1.9,73.1-15.4c0-15.4,46.2-28.9,140.5-38.5c194.4-21.2,213.6-21.2,229-1.9c5.8,9.6,36.6,7.7,69.3-5.8c69.3-28.9,113.6-13.5,80.8,26.9c-11.5,13.5-42.3,30.8-67.4,36.6c-27,7.7-48.1,19.2-48.1,28.9c0,26.9,138.6-28.9,184.7-73.1c23.1-23.1,50.1-40.4,57.7-40.4c21.2-1.9,103.9-69.3,103.9-84.7c0-5.8-13.5-11.6-28.9-11.6s-28.9-9.6-28.9-19.2c0-13.5,25-15.4,67.4-7.7c44.3,7.7,67.4,3.8,67.4-9.6c0-11.6,25-32.7,53.9-48.1c28.9-15.4,65.4-50,77-78.9c19.2-42.3,17.3-59.7-9.6-107.8c-19.2-30.8-38.5-55.8-44.3-55.8c-5.8,0-23.1-7.7-38.5-19.2c-23.1-13.5-23.1-23.1,7.7-55.8c21.2-23.1,32.7-40.4,28.9-42.3c-3.8,0-32.7-5.8-65.4-9.6c-30.8-5.8-59.6-17.3-63.5-26.9c-3.9-7.7-30.8-5.8-59.7,5.8c-46.2,17.3-61.6,13.5-98.2-21.2c-23.1-21.2-36.6-48.1-28.9-61.6c17.3-28.9,240.6-17.3,240.6,13.5c0,32.7,75.1,5.8,98.2-36.6c11.6-19.2,42.3-44.3,69.3-55.8c28.9-11.5,44.3-28.9,38.5-44.3c-7.7-19.2,15.4-38.5,69.3-59.7c44.3-17.3,84.7-38.5,90.5-46.2c5.8-5.8,44.3-21.2,86.6-32.7s92.4-28.9,113.6-36.6c63.5-26.9,0,63.5-84.7,115.5c-98.1,61.6-109.7,84.7-38.5,82.8c30.8-1.9,57.7-7.7,57.7-15.4s23.1-25,53.9-38.5c28.9-15.4,65.4-38.5,82.8-52c27-23.1,30.8-19.2,27,28.9c-1.9,30.8-9.6,67.4-19.2,82.8c-15.4,23.1-11.5,23.1,15.4,0c17.3-13.5,32.7-19.2,32.7-13.5c0,25-100.1,146.3-119.3,146.3c-25,0-150.1,134.7-150.1,161.7c0,11.5,9.6,9.6,23.1-3.8c32.7-32.7,63.5-28.9,34.6,5.8c-19.2,23.1-17.3,30.8,3.9,38.5c34.6,13.5,167.5-67.4,169.4-100.1c0-13.5,9.6-25,21.2-25c11.6,0,34.7-15.4,52-32.7c30.8-30.8,32.7-28.9,44.3,25c7.7,30.8,13.5,48.1,15.4,40.4c0-7.7,19.3-5.8,42.3,5.8c32.7,19.2,34.7,26.9,13.5,52c-21.2,26.9-19.2,28.9,19.2,15.4c38.5-11.6,44.3-7.7,38.5,23.1c-3.9,25-32.7,38.5-107.8,52c-53.9,9.6-100.1,25-100.1,32.7c0,9.6,9.6,17.3,23.1,17.3c59.7,0-40.4,55.8-105.8,61.6c-46.2,1.9-80.8,17.3-92.4,36.6c-7.7,17.3-38.5,38.5-65.4,44.3c-46.2,11.6-69.3,50-28.9,50c9.6,0,13.5,13.5,7.7,28.9c-9.6,23.1,1.9,26.9,51.9,19.2c63.5-9.6,65.4-9.6,13.5,11.6c-57.7,21.2-73.1,55.8-25,55.8c15.4,0,28.9,7.7,28.9,17.3c0,28.9-44.3,36.6-102,15.4c-65.4-21.2-90.4-5.8-34.6,25c61.6,32.7,50,65.4-17.3,50c-44.3-7.7-61.6-3.9-71.2,19.2c-5.8,17.3-25,26.9-48.1,21.2c-28.9-7.7-34.6-1.9-25,25c15.4,48.1-44.3,67.4-88.5,26.9c-32.7-30.8-36.6-30.8-48.1,0c-9.6,25-27,30.8-57.7,23.1c-50-13.5-59.7,5.8-23.1,42.3c36.6,36.6-32.7,94.3-132.8,107.8c-98.1,13.5-140.5-7.7-140.5-73.1c-1.9-40.4-1.9-40.4-28.9-3.8c-25,32.7-34.6,34.6-77,11.6c-61.6-32.7-78.9-15.4-50,55.8c21.2,46.2,19.2,63.5-7.7,103.9c-40.4,61.6-71.2,73.1-138.6,53.9c-109.7-34.6-123.2-44.3-102-69.3c17.3-19.2,11.6-26.9-21.2-32.7c-57.7-7.7-71.2-53.9-19.2-67.4c52-13.5,52-44.3,1.9-44.3c-50.1,0-48.1-26.9,3.8-61.6c28.9-19.2,36.6-38.5,28.9-61.6c-15.4-40.4-82.8-32.7-75.1,11.5c1.9,15.4-9.6,40.4-25,53.9s-28.9,42.3-28.9,65.4s-9.6,52-23.1,65.4c-17.3,17.3-7.7,38.5,42.3,90.5l65.4,67.4h-67.4C5764.1,2263.3,5706.3,2247.9,5671.7,2232.5z"/><path d="M3672,2140.1c-53.9-25-113.5-65.4-128.9-90.5c-30.8-42.3-28.9-44.3,26.9-78.9c34.6-21.2,75.1-30.8,103.9-23.1c59.7,15.4,107.8-11.5,55.8-32.7c-19.2-7.7-63.5-15.4-98.2-15.4c-67.4-1.9-98.1-30.8-52-48.1c17.3-5.8,105.9-11.6,196.3-11.6c109.7-1.9,184.8-11.6,215.6-28.9c44.3-25,38.5-26.9-98.2-28.9c-177.1,0-271.4-17.3-261.7-46.2c9.6-34.6,132.8-88.5,202.1-88.5c48.1,0,61.6-7.7,61.6-38.5c0-34.6,13.5-38.5,111.6-38.5c111.6,0,282.9,48.1,338.7,94.3c26.9,23.1,38.5,21.2,71.2-9.6c48.1-44.3,267.5-53.9,281-11.5c5.8,13.5-9.6,23.1-40.4,23.1c-26.9,0-50,7.7-50,17.3c0,26.9,55.8,42.3,107.8,28.9c26.9-7.7,46.2-3.8,46.2,7.7c0,26.9-77,80.8-117.4,80.8c-53.9,0-132.8,75.1-132.8,127c0,25-7.7,61.6-19.2,80.8c-9.6,17.3-26.9,55.8-38.5,86.6c-19.2,52-84.7,90.5-157.8,90.5c-42.3,0-42.3,7.7-1.9-167.4c17.3-73.1-32.7-50-65.4,28.9c-34.6,84.7-25,73.1-77,88.5c-34.6,11.5-42.3,7.7-32.7-15.4c7.7-21.2-3.9-36.6-40.4-50c-65.4-25-61.6-25-73.1,21.2c-11.6,40.4-42.3,44.3-148.2,15.4c-21.2-5.8-26.9,5.8-23.1,36.6C3841.4,2199.8,3799.1,2199.8,3672,2140.1z"/><path d="M7744.5,2095.8c0-19.2,13.5-50,28.9-69.3c23.1-32.7,34.6-34.6,94.3-13.5c80.8,26.9,86.6,42.3,21.2,84.7C7825.3,2140.1,7744.5,2138.2,7744.5,2095.8z"/><path d="M5140.5,1980.3c-7.7-5.8-3.9-23.1,7.7-38.5c17.3-19.2,13.5-25-17.3-25c-40.4,0-77-61.6-44.3-73.1c11.6-3.8,15.4-26.9,9.6-52c-13.5-53.9,19.2-75.1,142.4-96.2c63.5-9.6,80.8-21.2,80.8-52s-5.8-34.6-25-19.2c-13.5,11.5-36.6,13.5-50,5.8c-17.3-11.6-13.5-19.2,15.4-26.9c69.3-17.3,38.5-57.7-80.8-102c-27-9.6-32.7-25-21.2-71.2c9.6-48.1,7.7-55.8-21.2-46.2c-17.3,7.7-36.5,13.5-40.4,13.5c-3.8,0-7.7,25-7.7,55.8c0,40.4-11.6,57.7-42.3,67.4c-67.4,17.3-107.8,11.5-57.7-7.7c23.1-9.6,42.3-30.8,42.3-48.1c0-32.7-30.8-38.5-48.1-9.6c-7.7,13.5-63.5,15.4-150.1,7.7c-113.6-9.6-161.7-3.8-269.4,30.8c-98.2,30.8-138.6,36.6-154,21.2c-11.5-11.6-36.6-21.2-55.8-21.2c-44.3,0-65.4-50-36.6-84.7c21.2-25,9.6-88.5-15.4-88.5c-26.9,0-55.8,44.3-46.2,69.3c17.3,48.1-119.3,86.6-263.7,73.1c-140.5-13.5-231,0-231,32.7c0,11.6,17.3,25,38.5,30.8c94.3,25,5.8,82.8-125.1,82.8c-55.8,0-146.3,23.1-234.8,57.7c-161.7,65.4-202.1,69.3-236.7,28.9c-13.5-15.4-36.6-28.9-50-28.9c-15.4,0-26.9,13.5-26.9,28.9s-13.5,28.9-30.8,28.9c-19.2,0-26.9-11.5-19.2-28.9c7.7-19.2-1.9-28.9-26.9-28.9c-23.1,0-57.7,30.8-88.5,77c-28.9,42.3-59.7,77-71.2,77c-9.6,0-7.7-13.5,5.8-28.9c21.2-25,7.7-36.6-88.5-78.9c-209.8-92.4-238.6-107.8-238.6-134.7c0-23.1-7.7-23.1-38.5-3.8c-21.2,13.5-38.5,30.8-38.5,36.6c0,5.8,57.7,40.4,129,75.1c71.2,36.6,119.3,67.4,103.9,73.1c-13.5,3.9-44.3,0-65.4-11.5c-98.2-46.2-177.1-69.3-242.5-69.3c-59.7-1.9-69.3-7.7-65.4-44.3c3.8-38.5-1.9-40.4-67.4-30.8c-38.5,5.8-103.9,26.9-142.4,46.2c-40.4,21.2-94.3,36.6-121.2,36.6c-26.9,0-82.8,17.3-121.2,36.6c-77,40.4-400.3,84.7-579.3,78.9c-73.1-1.9-111.6,7.7-140.5,32.7c-25,23.1-69.3,32.7-142.4,32.7c-71.2,0-103.9,7.7-103.9,25c0,34.6-67.4,30.8-96.2-3.8c-15.4-17.3-55.8-28.9-107.8-28.9c-65.4,0-80.8-5.8-73.1-28.9c9.6-21.2-1.9-28.9-36.6-28.9c-86.6,0-146.3-34.6-196.3-115.5c-38.5-61.6-59.7-77-103.9-77c-30.8,0-71.2-15.4-88.5-32.7c-30.8-28.9-26.9-34.6,55.8-77c50-25,94.3-57.7,100.1-71.2c5.8-15.4,40.4-32.7,77-38.5c36.6-7.7,65.4-21.2,65.4-30.8c0-9.6,30.8-23.1,67.4-30.8c78.9-13.5,90.5-46.2,17.3-46.2c-26.9,0-63.5-7.7-80.8-17.3c-46.2-25-138.6-3.9-138.6,30.8c0,34.6-17.3,30.8-179-38.5L100,1208.6l84.7-28.9c44.3-17.3,67.4-30.8,50-30.8c-19.2-1.9-34.6-13.5-34.6-28.9c0-15.4,15.4-32.7,34.6-38.5c57.7-17.3,242.5-1.9,290.6,25c34.6,19.2,50,19.2,67.4,1.9c15.4-17.3,15.4-26.9-1.9-32.7c-19.2-5.8-19.2-19.2-3.8-46.2c25-48.1,7.7-75.1-48.1-75.1c-25,0-55.8-13.5-71.2-30.8c-15.4-17.3-40.4-25-67.4-19.2c-34.6,9.6-55.8-5.8-102-69.3c-32.7-44.3-59.7-90.4-59.7-103.9c0-11.6,38.5-34.6,86.6-48.1c88.5-26.9,123.2-69.3,38.5-48.1c-34.6,9.6-48.1,3.9-48.1-15.4c0-44.3,52-71.2,129-65.4c73.1,5.8,73.1,5.8,78.9-67.4c5.8-61.6,11.5-71.2,38.5-61.6c77,32.7,103.9,32.7,138.6,0c36.6-32.7,38.5-32.7,38.5,0c0,21.2,9.6,28.9,30.8,21.2c17.3-5.8,42.3-11.6,57.7-11.6c19.2,0,23.1-15.4,13.5-61.6c-11.5-67.4-57.7-119.3-152-173.2c-30.8-17.3-57.7-40.4-61.6-52c-13.5-38.5,69.3-21.2,125.1,25c28.9,25,73.1,50,98.1,57.7c23.1,7.7,42.3,25,42.3,40.4c0,13.5,38.5,44.3,84.7,67.4c100.1,46.2,150.1,98.2,113.5,109.7c-40.4,13.5-28.9,55.8,23.1,78.9c26.9,11.6,48.1,34.6,48.1,52c0,40.4,148.2,129,194.4,115.5c46.2-15.4,48.1-48.1,1.9-34.6c-46.2,11.5-103.9-55.8-111.6-129l-7.7-59.7l63.5,34.6c32.7,19.2,67.4,42.3,73.1,52c7.7,7.7,30.8,9.6,53.9,1.9c28.9-7.7,40.4-3.8,40.4,15.4c0,17.3-11.5,32.7-23.1,38.5c-19.2,5.8-19.2,13.5,1.9,38.5c32.7,42.3,48.1,40.4,154-7.7c48.1-21.2,105.8-48.1,127-55.8c36.6-15.4,180.9-36.6,302.2-42.3c32.7,0,53.9-15.4,59.7-36.6c5.8-21.2,27-36.6,46.2-36.6c19.2,0,50-17.3,69.3-38.5c36.6-44.3,82.8-50,96.2-13.5c5.8,17.3,15.4,15.4,42.3-5.8c32.7-26.9,34.6-25,23.1,28.9c-11.6,50-9.6,53.9,11.5,21.2c11.5-19.2,46.2-57.7,77-84.7c28.9-27,52-61.6,52-77c0-15.4,23.1-50,50-75.1c26.9-25,44.3-57.7,38.5-73.1c-5.8-17.3,0-23.1,19.2-15.4c36.6,13.5,84.7-27,84.7-73.1c0-23.1,9.6-30.8,28.9-25c32.7,13.5,38.5-13.5,9.6-42.3c-26.9-26.9,30.8-105.8,67.4-92.4c17.3,7.7,28.9,0,28.9-15.4c0-17.3,21.2-52,46.2-78.9c32.7-34.7,40.4-53.9,25-69.3c-15.4-15.4-15.4-21.2,0-21.2c11.5,0,17.3-17.3,11.5-38.5c-7.7-30.8,0-38.5,38.5-38.5c27,0,55.8-7.7,61.6-19.2c5.8-9.6,26.9-19.2,46.2-19.2c21.2,0,40.4-17.3,46.2-40.4c5.8-23.1,17.3-36.6,27-30.8c21.2,13.5,69.3-23.1,109.7-86.6c36.6-55.8,30.8-150.1-9.6-150.1c-11.5,0-15.4,15.4-7.7,36.6c7.7,26.9-1.9,38.5-42.3,46.2c-28.9,5.8-57.7,7.7-59.7,3.9c-3.9-3.9,3.8-38.5,15.4-78.9c17.3-50,19.2-117.4,9.6-217.5c-7.7-80.8-13.5-171.3-13.5-204c1.9-30.8,3.9-94.3,3.9-138.6c0-44.3,9.6-86.6,19.2-92.4c11.5-5.8,19.2-32.7,19.2-57.7s21.2-61.6,50-84.7c26.9-21.2,44.3-46.2,38.5-55.8c-5.8-11.6,1.9-28.9,17.3-42.3c15.4-13.5,28.9-38.5,28.9-57.7c0-17.3,17.3-48.1,38.5-67.4c21.2-19.2,38.5-44.3,38.5-55.8c0-11.5,44.3-38.5,100.1-59.6c98.1-38.5,102-42.3,163.6-192.5c34.6-82.8,90.4-180.9,125.1-215.6c53.9-55.8,59.7-69.3,38.5-102c-25-40.4-25-40.4,82.8-98.2c36.6-19.2,59.7-50,63.5-78.9c5.8-48.1,163.6-215.6,182.8-196.3c15.4,15.4-28.9,84.7-53.9,84.7c-11.5,0-30.8,34.6-44.3,77c-21.2,71.2-152.1,275.2-223.3,346.4c-25,26.9-65.4,173.2-46.2,173.2c5.8,0,34.6-9.6,65.4-19.2c44.3-15.4,63.5-42.3,90.4-113.6c17.3-52,59.7-117.4,90.5-144.3c32.7-25,57.7-55.8,57.7-65.4c0-9.6,21.2-28.9,48.1-42.3c26.9-13.5,48.1-38.5,48.1-55.8c0-17.3,36.6-65.4,78.9-107.8c138.6-134.7,177.1-198.2,182.8-292.5c3.8-71.2,17.3-96.2,69.3-142.4c34.6-28.9,80.8-59.7,102-65.4c21.2-7.7,111.6-48.1,202.1-92.4c161.7-77,240.6-92.4,348.4-61.6c42.3,11.5,67.4-1.9,150.1-75.1c53.9-48.1,115.5-88.5,134.7-88.5c19.2,0,67.4-13.5,107.8-30.8c40.4-15.4,84.7-25,98.2-19.2c15.4,5.8,26.9,0,26.9-13.5c0-13.5,30.8-53.9,65.4-90.5c36.6-34.6,69.3-80.8,73.1-103.9c3.8-23.1,17.3-38.5,30.8-36.6c32.7,7.7,119.3-73.1,105.9-98.2c-5.8-11.5-5.8-15.4,3.8-7.7c7.7,7.7,25,7.7,36.6-1.9c51.9-38.5,150.1-40.4,204-1.9c67.4,48.1,67.4,48.1,136.6-1.9c63.5-44.3,75.1-17.3,17.3,40.4c-46.2,46.2-98.1,48.1-171.3,11.5c-73.1-38.5-115.5-23.1-190.5,71.2c-57.7,71.2-63.5,88.5-53.9,157.8c7.7,42.3,17.3,109.7,25,150.1c7.7,57.7,3.8,71.2-21.2,71.2c-17.3,0-30.8,9.6-30.8,19.2c0,11.5-67.4,19.2-165.5,19.2c-142.4,0-163.6,3.9-142.4,27c11.6,15.4,23.1,67.4,25,113.5c1.9,48.1,9.6,82.8,17.3,77c9.6-3.9,15.4,17.3,15.4,48.1c0,30.8,13.5,67.4,28.9,80.8c53.9,44.3,34.6,77-46.2,77c-115.5,0-167.5-27-180.9-94.3c-15.4-71.2-69.3-136.6-102-123.2c-15.4,5.8-53.9,0-88.5-11.6c-40.4-15.4-67.4-15.4-80.8-1.9c-9.6,9.6-32.8,19.2-52,19.2c-17.3,0-61.6,50-102,115.5c-77,125.1-78.9,140.5-44.3,481.2c3.9,36.6,9.6,80.8,11.6,98.1c0,17.3,34.7,46.2,75.1,65.4c38.5,17.3,82.8,46.2,94.3,63.5c32.7,40.4,215.5,46.2,259.8,7.7c27-23.1,40.4-23.1,61.6-5.8c19.2,15.4,30.8,17.3,40.4,1.9c5.8-9.6,23.1-19.2,34.6-19.2c15.4,0,13.5,5.8-3.8,17.3c-13.5,9.6-21.2,25-13.5,36.6c5.8,11.5-7.7,25-30.8,28.9c-25,3.9,0,9.6,52,13.5c182.8,7.7,221.3,5.8,250.2-19.2c15.4-13.5,48.1-19.2,73.1-11.6c61.6,15.4,132.8-61.6,140.5-150.1c5.8-69.3,98.2-221.3,136.7-223.2c11.5,0,26.9,25,34.6,57.7c13.5,57.7-9.6,144.3-69.3,275.2c-25,55.8-28.9,88.5-15.4,134.7c17.3,63.5,179,225.2,223.3,225.2c13.5,0,25,9.6,25,19.2c0,11.5,21.2,28.9,46.2,40.4c28.9,13.5,42.3,32.7,36.6,50c-5.8,13.5-3.8,25,5.8,23.1c40.4-7.7,50.1,3.8,27,30.8c-17.3,19.2-17.3,28.9-1.9,28.9c11.5,0,21.2,13.5,21.2,28.9c0,15.4-7.7,28.9-19.3,28.9c-9.6,0-19.2,19.2-19.2,40.4c0,23.1-15.4,53.9-32.7,67.4c-32.7,25-32.7,27,0,15.4c25-9.6,32.7,0,34.6,42.3c1.9,40.4,5.8,44.3,11.6,17.3c3.8-21.2,13.5-52,19.2-67.4c5.8-15.4,9.6-34.6,9.6-42.3c-7.7-28.9,13.5-15.4,34.6,23.1c13.5,26.9,15.4,50,1.9,75c-17.3,30.8-15.4,34.7,15.4,27c26.9-5.8,40.4,3.9,51.9,36.6c7.7,23.1,13.5,53.9,11.6,65.4c-7.7,36.6,129,90.5,254.1,102c9.6,1.9,7.7,13.5-3.9,27c-32.7,38.5,0,167.4,44.3,167.4c13.5,0,38.5,13.5,55.8,28.9c15.4,17.3,34.6,30.8,40.4,28.9c46.2-1.9,67.4,3.9,90.5,25c30.8,30.8,192.5,94.3,204,80.8c5.8-5.8-1.9-9.6-17.3-11.6c-15.4-1.9-5.8-9.6,21.2-17.3c46.2-15.4,46.2-15.4,3.8-17.3c-55.8-1.9-138.6-55.8-138.6-90.5c0-46.2,57.7-53.9,102-13.5c23.1,21.2,86.6,53.9,142.4,73.1c113.5,40.4,111.6,78.9-1.9,82.8c-69.3,1.9-146.3,52-146.3,94.3c0,13.5-9.6,25-21.2,25c-15.4,0-15.4,9.6,1.9,28.9c19.2,25,17.3,28.9-15.4,28.9c-23.1,0-46.2,9.6-52,19.2c-5.8,11.5,3.8,19.2,23.1,19.2c21.2,0,53.9,13.5,75,28.9c30.8,25,32.7,30.8,7.7,48.1c-15.4,9.6-48.1,19.2-71.2,19.2c-71.2,0-252.1-90.5-313.7-157.8c-88.5-96.2-69.3-32.7,21.2,69.3c42.3,48.1,98.2,94.3,123.2,100.1c25,5.8,59.7,32.7,77,57.7c28.9,44.3,38.5,46.2,261.7,46.2c221.3,0,232.9,1.9,275.2,48.1c25,26.9,63.5,48.1,88.5,48.1c23.1,0,67.4,15.4,98.1,32.7c44.3,26.9,52,42.3,44.3,80.8c-19.2,90.5-25,98.2-65.4,98.2c-23.1,0-36.6,7.7-30.8,17.3c23.1,36.6-52,38.5-98.2,1.9c-50-40.4-102-50-102-23.1c0,17.3,77,61.6,144.3,82.8c32.7,9.6,27,15.4-36.6,42.3C7677.1,36.5,7629,50,7609.7,50c-21.2,0-32.7,13.5-30.8,32.7c0,17.3-19.3,42.3-44.3,55.8c-59.6,30.8-92.4,84.7-50,84.7c15.4,0,28.9,9.6,28.9,19.2c0,11.6-9.6,19.2-21.2,19.2s-17.3,13.5-9.6,28.9c5.8,15.4-1.9,34.6-15.4,42.3c-13.5,9.6-40.4,46.2-57.8,82.8c-44.3,94.3-102,159.7-127,144.3c-11.5-7.7-34.6-48.1-52-90.5c-19.2-48.1-36.6-67.4-44.3-53.9c-11.5,17.3-19.2,17.3-30.8-3.8c-25-40.4-103.9-57.7-103.9-23.1c0,26.9-19.2,34.6-77,28.9c-25-1.9-30.8,21.2-28.9,121.2c1.9,69.3-1.9,123.2-7.7,121.3c-34.6-5.8-136.6,30.8-136.6,52c0,13.5-27,42.3-57.7,67.4c-46.2,32.7-73.1,38.5-125.1,28.9c-34.6-5.8-96.2-1.9-134.7,11.6c-59.7,19.2-77,19.2-100.1-5.8c-23.1-23.1-25-34.6-3.8-67.4c19.2-32.7,19.2-44.3,0-69.3c-15.4-17.3-17.3-30.8-5.8-30.8c40.4,0,42.3-94.3,1.9-165.5l-38.5-71.2l67.4-55.8c53.9-44.3,69.3-71.2,69.3-121.2c0-77-69.3-167.4-154-202.1c-63.5-27-71.2-42.3-30.8-77c15.4-11.6,23.1-34.6,17.3-50.1c-5.8-13.5,0-51.9,9.6-82.7c23.1-67.4,1.9-180.9-25-136.6c-13.5,21.2-19.3,19.2-28.9-9.6c-11.5-32.7-25-25-102,55.8c-90.4,92.4-103.9,134.7-92.4,275.2c1.9,34.6-9.6,42.3-88.5,50c-111.6,9.6-252.1,61.6-304.1,109.7c-61.6,57.7-182.8,100.1-250.2,88.5c-57.7-11.6-59.7-7.7-82.8,75.1c-19.2,73.1-30.8,86.6-71.2,86.6c-75,0-94.3,59.7-57.7,184.8c17.3,57.7,42.3,109.7,57.7,117.4c15.4,5.8,28.9,21.2,28.9,34.6s23.1,38.5,50.1,57.7c38.5,25,44.2,36.6,26.9,48.1c-17.3,11.6-7.7,17.3,28.9,23.1c77,7.7,84.7,52,11.6,65.4c-32.7,7.7-67.4,23.1-78.9,36.6c-17.3,19.2-7.7,23.1,42.3,11.6c34.6-9.6,82.8-21.2,107.8-28.9c34.6-11.6,42.3-7.7,42.3,23.1c0,28.9,9.6,34.6,50,27c32.7-5.8,63.5,5.8,96.2,34.6c59.7,57.7,57.7,71.2-11.6,86.6c-30.8,7.7-63.5,21.2-69.3,30.8c-5.8,11.6-34.6,28.9-61.6,40.4c-42.3,17.3-46.2,23.1-17.3,28.9c19.2,5.8,65.4-9.6,102-30.8c71.2-42.3,109.7-36.6,163.6,28.9c21.2,25,21.2,34.6,3.8,40.4c-13.5,5.8-25,17.3-25,26.9c0,23.1,90.5,23.1,105.8-1.9c5.8-9.6,30.8-19.2,52-19.2c38.5,0,40.4,1.9,5.8,38.5c-19.2,21.2-30.8,44.3-25,50c5.8,5.8,30.8-9.6,51.9-34.6c38.5-40.4,46.2-42.3,92.4-15.4c86.6,50,94.3,80.8,38.5,163.6c-53.9,80.8-52,113.6,9.6,94.3c28.9-7.7,36.6-3.8,30.8,23.1c-5.8,36.6-111.6,96.2-204,115.5c-52,11.6-61.6,7.7-61.6-26.9c0-21.2,13.5-48.1,28.9-61.6c30.8-25,23.1-48.1-15.4-48.1c-11.5,0-27-17.3-32.7-38.5c-15.4-57.7-78.9-144.3-103.9-144.3c-13.5,0-44.3,23.1-71.2,50c-42.3,44.3-42.3,52-15.4,71.2c21.2,17.3,26.9,36.6,15.4,63.5c-25,69.3-71.2,71.2-107.8,1.9l-30.8-61.6l-27,63.5c-13.5,34.6-21.2,71.2-15.4,82.8c11.6,15.4-17.3,25-55.8,19.2c-7.7-1.9-30.8,1.9-52,7.7c-40.4,13.5-28.9,67.4,17.3,67.4c23.1,0,17.3,13.5-21.2,53.9c-28.9,28.9-52,67.4-52,84.7C5319.5,1961.1,5180.9,2022.7,5140.5,1980.3z"/><path d="M4959.6,1691.6c-7.7-19.2-25-44.3-42.3-55.8c-23.1-17.3-9.6-26.9,71.2-53.9c148.2-50,182.8-11.6,78.9,86.6C4998.1,1734,4976.9,1737.8,4959.6,1691.6z"/><path d="M6447.3,1495.3c-67.4-75.1,11.6-132.8,96.2-71.2c28.9,23.1,32.7,34.6,15.4,63.5C6528.1,1537.7,6487.7,1539.6,6447.3,1495.3z"/><path d="M5819.9,1177.8c-9.6-28.9-19.3-75.1-19.3-102s-15.4-61.6-32.7-75.1c-30.8-23.1-30.8-25,15.4-26.9c28.9,0,57.7-13.5,63.5-30.8c9.6-26.9,17.3-25,69.3,5.8c30.8,17.3,57.7,44.3,57.7,57.7c0,36.6,34.6,30.8,90.4-13.5c53.9-42.3,111.6-50,130.9-19.2c7.7,11.6-13.5,25-46.2,30.8c-32.7,7.7-59.7,23.1-59.7,36.6c0,30.8-130.9,113.5-182.8,115.5c-21.2,0-38.5,9.6-38.5,23.1C5868,1227.8,5839.1,1225.9,5819.9,1177.8z"/><path d="M2297.9,342.5c0-27,21.2-40.4,50-28.9c40.4,15.4,32.7,44.3-11.6,44.3C2315.2,357.9,2297.9,350.2,2297.9,342.5z"/><path d="M1114.3,300.2c-5.8-9.6-23.1-13.5-38.5-5.8c-17.3,5.8-28.9-1.9-28.9-21.2c0-42.3,32.7-38.5,90.5,7.7c34.6,26.9,40.4,38.5,19.2,38.5C1139.3,319.4,1122,311.7,1114.3,300.2z"/><path d="M2374.9,254c0-15.4,9.6-34.6,19.2-40.4c11.5-5.8,19.2,1.9,19.2,17.3s-7.7,34.6-19.2,40.4C2384.5,277.1,2374.9,269.4,2374.9,254z"/><path d="M2509.6,159.7c0-30.8,40.4-109.7,55.8-109.7c25,0,3.9,71.2-28.9,98.1C2521.1,159.7,2509.6,165.5,2509.6,159.7z"/><path d="M523.4,105.8c-19.2-9.6-34.6-28.9-34.6-40.4c0-17.3,5.8-17.3,23.1,0c13.5,13.5,44.3,23.1,69.3,23.1c25,0,38.5,7.7,32.7,19.2C598.5,132.7,565.8,130.8,523.4,105.8z"/><path d="M359.8,25c-25-9.6-44.3-27-44.3-36.6c0-21.2,5.8-19.2,67.4,11.5C442.6,30.7,421.4,53.8,359.8,25z"/><path d="M171.2-84.7c5.8-9.6,15.4-19.2,21.2-19.2c3.8,0,7.7,9.6,7.7,19.2c0,11.5-9.6,19.2-21.2,19.2C169.3-65.5,165.4-73.2,171.2-84.7z"/><path d="M2540.4-94.4c7.7-15.4,23.1-28.9,38.5-28.9c15.4,0,26.9,13.5,26.9,28.9c0,15.4-17.3,28.9-38.5,28.9C2542.3-65.5,2532.7-75.1,2540.4-94.4z"/><path d="M7836.8-348.4c-46.2-52-88.5-146.3-78.9-173.2c5.8-13.5,0-25-11.5-25s-21.2-13.5-21.2-28.9c0-17.3-13.5-34.6-28.9-40.4c-67.4-26.9-21.2-50,92.4-46.2c65.4,1.9,136.7,3.8,157.8,1.9c36.6-3.8,36.6-3.8,5.8-28.9c-19.3-13.5-34.6-30.8-34.6-38.5c0-7.7,23.1,3.9,53.9,27c42.3,34.6,53.9,36.6,57.7,13.5c5.8-28.9,59.7-59.7,75.1-44.3c17.3,15.4-15.4,88.5-34.6,78.9c-9.6-7.7-17.3,0-17.3,17.3c0,15.4,11.5,32.7,25,36.6c13.5,5.8,7.7,11.5-11.5,11.5c-27,1.9-32.7,11.6-23.1,40.4c11.5,34.6,3.8,38.5-42.3,34.6c-63.5-3.8-107.8,17.3-90.5,46.2c7.7,13.5-3.8,15.4-32.7,5.8c-42.3-13.5-42.3-13.5-15.4,30.8c48.1,73.1,57.7,113.6,28.9,113.6C7877.3-315.7,7852.2-331.1,7836.8-348.4z"/><path d="M2875.3-390.8c0-11.5,23.1-32.7,53.9-44.3c28.9-13.5,65.4-40.4,82.8-57.7c17.3-19.2,38.5-34.6,44.3-34.6c7.7,0,26.9-13.5,42.3-28.9c17.3-15.4,42.3-28.9,57.7-28.9c40.4,0,32.7,53.9-11.5,67.4c-21.2,5.8-48.1,28.9-59.7,50C3056.2-413.8,2875.3-346.5,2875.3-390.8z"/><path d="M7546.2-758.3c-27-38.5-28.9-52-7.7-73.1c27-25,90.4-13.5,90.4,17.3c0,25-27,21.2-53.9-5.8c-13.5-13.5-23.1-15.4-23.1-3.8c0,11.6,9.6,28.9,21.2,40.4c11.6,11.5,17.3,32.7,13.5,46.2C7580.9-721.8,7567.4-729.5,7546.2-758.3z"/><path d="M5998.9-2723.3c-34.6-9.6-71.2-34.7-82.8-55.8c-21.2-38.5-19.2-38.5,48.1,0c73.1,40.4,134.7,52,115.5,19.2c-7.7-11.5,11.5-19.2,46.2-19.2c30.8,0,63.5-7.7,69.3-19.2c5.8-9.6,32.7-19.2,59.6-19.2c27,0,52-11.5,57.7-27c5.8-15.4,32.7-32.7,59.7-40.4c38.5-9.6,42.3-17.3,25-38.5c-17.3-21.2-3.8-25,86.6-19.2c123.2,5.8,152.1,21.2,78.9,40.4c-26.9,5.8-50,19.2-50,28.9c0,9.6-15.4,17.3-32.7,17.3c-19.2,0-59.6,17.3-92.4,38.5c-30.8,21.2-69.3,38.5-84.7,38.5c-15.4,0-42.3,11.5-57.7,27C6204.8-2717.6,6073.9-2702.2,5998.9-2723.3z"/><path d="M937.2-2962c-13.5-38.5,0-52,38.5-36.6c17.3,5.8,25,23.1,19.2,38.5C981.5-2923.5,952.6-2925.4,937.2-2962z"/><path d="M6691.7-2965.8c28.9-7.7,42.3-44.3,28.9-73.1c-3.9-3.8,13.5-23.1,38.5-40.4c34.6-23.1,50-25,73.1-7.7c15.4,13.5,61.6,25,103.9,27c42.3,0,77,5.8,77,13.5c0,30.8-171.3,90.5-259.8,88.5C6701.3-2958.1,6672.5-2962,6691.7-2965.8z"/><path d="M6618.6-3067.8c7.7-11.5,21.2-15.4,30.8-9.6c27,17.3,21.2,28.9-13.5,28.9C6620.5-3048.6,6612.8-3058.2,6618.6-3067.8z"/><path d="M7109.4-3067.8c0-9.6,23.1-19.2,53.9-17.3c46.2,0,48.1,1.9,13.5,17.3C7124.7-3044.7,7109.4-3044.7,7109.4-3067.8z"/><path d="M6364.5-3089c27-15.4,42.3-15.4,57.7,0c15.4,15.4,5.8,21.2-34.6,21.2C6337.6-3069.8,6333.7-3071.7,6364.5-3089z"/></g></g>
</svg>